<svg width="28" height="28" viewBox="0 0 28 28" fill="none" xmlns="http://www.w3.org/2000/svg">
<g clip-path="url(#clip0_863_34177)">
<path d="M22.1667 11.6665V13.9998C22.1667 16.1658 21.3063 18.243 19.7747 19.7745C18.2432 21.3061 16.166 22.1665 14 22.1665M14 22.1665C11.8341 22.1665 9.75688 21.3061 8.22534 19.7745C6.69379 18.243 5.83337 16.1658 5.83337 13.9998V11.6665M14 22.1665V26.8332M9.33337 26.8332H18.6667M14 1.1665C13.0718 1.1665 12.1815 1.53525 11.5252 2.19163C10.8688 2.84801 10.5 3.73825 10.5 4.6665V13.9998C10.5 14.9281 10.8688 15.8183 11.5252 16.4747C12.1815 17.1311 13.0718 17.4998 14 17.4998C14.9283 17.4998 15.8185 17.1311 16.4749 16.4747C17.1313 15.8183 17.5 14.9281 17.5 13.9998V4.6665C17.5 3.73825 17.1313 2.84801 16.4749 2.19163C15.8185 1.53525 14.9283 1.1665 14 1.1665Z" stroke="white" stroke-width="2" stroke-linecap="round" stroke-linejoin="round"/>
</g>
<defs>
<clipPath id="clip0_863_34177">
<rect width="28" height="28" fill="white"/>
</clipPath>
</defs>
</svg>
